# xmcd CD database file
#
# Track frame offsets:
#	150
#	13661
#	26331
#	40052
#	52734
#	66776
#	81566
#	94455
#	105992
#	118034
#	130207
#	141931
#	156376
#	170827
#	189534
#	203645
#	216532
#	228902
#	239859
#	252669
#	262312
#	272413
#	304646
#
# Disc length: 4472 seconds
#
# Revision: 1
# Processed by: cddbd v1.5.2PL0 Copyright (c) Steve Scherf et al.
# Submitted via: CDex 1.51
#
DISCID=59117617
DTITLE=Django Reinhardt - BD JAZZ Django Reinhardt Volume 2 CD2
DYEAR=1900
DGENRE=Jazz
TTITLE0=Improvisation no 1
TTITLE1=St. Louis Blues
TTITLE2=Parfum
TTITLE3=Boucing around
TTITLE4=You rascal you
TTITLE5=Sweet Georgia Brown
TTITLE6=Tea for two
TTITLE7=J'attendrai (tornerai)
TTITLE8=Louise
TTITLE9=Improvisation no 2
TTITLE10=I'll see you in my dreams
TTITLE11=Echoes of Spain
TTITLE12=Vous et moi
TTITLE13=Nuages
TTITLE14=Improvisation no 3 - première partie
TTITLE15=Improvisation no 3 - deuxième partie
TTITLE16=Honeysuckle rose
TTITLE17=Improvistion no 6
TTITLE18=Improvisation no 2 (or no 6)
TTITLE19=Improvisation no 5 (improvisation 47)
TTITLE20=Improvisation no 7
TTITLE21=Belleville
TTITLE22=Nuages
EXTD=
EXTT0=
EXTT1=
EXTT2=
EXTT3=
EXTT4=
EXTT5=
EXTT6=
EXTT7=
EXTT8=
EXTT9=
EXTT10=
EXTT11=
EXTT12=
EXTT13=
EXTT14=
EXTT15=
EXTT16=
EXTT17=
EXTT18=
EXTT19=
EXTT20=
EXTT21=
EXTT22=
PLAYORDER=
